HIERARCHY
ROOT hip
{
  OFFSET 0.00112043 5.09927 -9.65472
  CHANNELS 6 Xposition Yposition Zposition Zrotation Xrotation Yrotation
  JOINT abdomen
  {
    OFFSET 0 -1.186 -1.5018
    CHANNELS 3 Zrotation Xrotation Yrotation
    JOINT abdomen2
    {
      OFFSET 0 9.964 0.2134
      CHANNELS 3 Zrotation Xrotation Yrotation
      JOINT chest
      {
        OFFSET 0 13.134 -3.2573
        CHANNELS 3 Zrotation Xrotation Yrotation
        JOINT neck
        {
          OFFSET 0 20.686 -1.6905
          CHANNELS 3 Zrotation Xrotation Yrotation
          JOINT head
          {
            OFFSET 0 7.238 -0.1237
            CHANNELS 3 Zrotation Xrotation Yrotation
            End Site
            {
              OFFSET 0 0 0
            }
          }
        }
        JOINT lCollar
        {
          OFFSET 1.7069 20.075 5.0056
          CHANNELS 3 Zrotation Xrotation Yrotation
          JOINT lShldr
          {
            OFFSET 13.6458 -0.047 -4.849
            CHANNELS 3 Zrotation Xrotation Yrotation
            JOINT lForeArm
            {
              OFFSET 28.3255 -0.9759 2.2888
              CHANNELS 3 Zrotation Xrotation Yrotation
              JOINT lHand
              {
                OFFSET 22.1583 -0.53 10.8316
                CHANNELS 3 Zrotation Xrotation Yrotation
                JOINT lThumb1
                {
                  OFFSET 0.786 0.112 2.5817
                  CHANNELS 3 Zrotation Xrotation Yrotation
                  JOINT lThumb2
                  {
                    OFFSET 0.3601 -0.878 4.2331
                    CHANNELS 3 Zrotation Xrotation Yrotation
                    JOINT lThumb2_End
                    {
                      OFFSET 1.8127 -1.216 2.2227
                      CHANNELS 3 Zrotation Xrotation Yrotation
                      End Site
                      {
                        OFFSET 0.0181 -0.0122 0.0222
                      }
                    }
                  }
                }
                JOINT lCarpal1
                {
                  OFFSET 0.9571 1.114 1.7695
                  CHANNELS 3 Zrotation Xrotation Yrotation
                  JOINT lIndex1
                  {
                    OFFSET 4.1246 0.487 4.1451
                    CHANNELS 3 Zrotation Xrotation Yrotation
                    JOINT lIndex2
                    {
                      OFFSET 3.4052 -1.454 2.7682
                      CHANNELS 3 Zrotation Xrotation Yrotation
                      JOINT lIndex2_End
                      {
                        OFFSET 1.4531 -1.795 1.2713
                        CHANNELS 3 Zrotation Xrotation Yrotation
                        End Site
                        {
                          OFFSET 0.0145 -0.0179 0.0127
                        }
                      }
                    }
                  }
                  JOINT lMid1
                  {
                    OFFSET 5.6954 0.21 2.1184
                    CHANNELS 3 Zrotation Xrotation Yrotation
                    JOINT lMid2
                    {
                      OFFSET 3.9766 -1.54 2.3863
                      CHANNELS 3 Zrotation Xrotation Yrotation
                      JOINT lMid2_End
                      {
                        OFFSET 1.4042 -1.926 1.125
                        CHANNELS 3 Zrotation Xrotation Yrotation
                        End Site
                        {
                          OFFSET 0.014 -0.0193 0.0113
                        }
                      }
                    }
                  }
                }
                JOINT lCarpal2
                {
                  OFFSET 2.0956 0.66 -0.3894
                  CHANNELS 3 Zrotation Xrotation Yrotation
                  JOINT lRing1
                  {
                    OFFSET 5.0395 -0.09 2.4971
                    CHANNELS 3 Zrotation Xrotation Yrotation
                    JOINT lRing2
                    {
                      OFFSET 3.7921 -1.552 1.4806
                      CHANNELS 3 Zrotation Xrotation Yrotation
                      JOINT lRing2_End
                      {
                        OFFSET 1.4655 -1.808 0.9609
                        CHANNELS 3 Zrotation Xrotation Yrotation
                        End Site
                        {
                          OFFSET 0.0147 -0.0181 0.0096
                        }
                      }
                    }
                  }
                  JOINT lPinky1
                  {
                    OFFSET 4.9141 -1.269 0.3591
                    CHANNELS 3 Zrotation Xrotation Yrotation
                    JOINT lPinky2
                    {
                      OFFSET 3.1477 -1.685 0.8462
                      CHANNELS 3 Zrotation Xrotation Yrotation
                      JOINT lPinky2_End
                      {
                        OFFSET 0.8055 -1.585 0.7955
                        CHANNELS 3 Zrotation Xrotation Yrotation
                        End Site
                        {
                          OFFSET 0.0081 -0.0158 0.008
                        }
                      }
                    }
                  }
                }
              }
            }
          }
        }
        JOINT rCollar
        {
          OFFSET -1.7069 20.075 5.0056
          CHANNELS 3 Zrotation Xrotation Yrotation
          JOINT rShldr
          {
            OFFSET -13.6458 -0.047 -4.849
            CHANNELS 3 Zrotation Xrotation Yrotation
            JOINT rForeArm
            {
              OFFSET -28.3255 -0.9759 2.2888
              CHANNELS 3 Zrotation Xrotation Yrotation
              JOINT rHand
              {
                OFFSET -22.1583 -0.53 10.8316
                CHANNELS 3 Zrotation Xrotation Yrotation
                JOINT rThumb1
                {
                  OFFSET -0.786 0.112 2.5817
                  CHANNELS 3 Zrotation Xrotation Yrotation
                  JOINT rThumb2
                  {
                    OFFSET -0.3601 -0.878 4.2331
                    CHANNELS 3 Zrotation Xrotation Yrotation
                    JOINT rThumb2_End
                    {
                      OFFSET -1.8127 -1.216 2.2227
                      CHANNELS 3 Zrotation Xrotation Yrotation
                      End Site
                      {
                        OFFSET -0.0181 -0.0122 0.0222
                      }
                    }
                  }
                }
                JOINT rCarpal1
                {
                  OFFSET -0.9571 1.114 1.7695
                  CHANNELS 3 Zrotation Xrotation Yrotation
                  JOINT rIndex1
                  {
                    OFFSET -4.1246 0.487 4.1451
                    CHANNELS 3 Zrotation Xrotation Yrotation
                    JOINT rIndex2
                    {
                      OFFSET -3.4052 -1.454 2.7682
                      CHANNELS 3 Zrotation Xrotation Yrotation
                      JOINT rIndex2_End
                      {
                        OFFSET -1.4531 -1.795 1.2713
                        CHANNELS 3 Zrotation Xrotation Yrotation
                        End Site
                        {
                          OFFSET -0.0145 -0.018 0.0127
                        }
                      }
                    }
                  }
                  JOINT rMid1
                  {
                    OFFSET -5.6954 0.21 2.1184
                    CHANNELS 3 Zrotation Xrotation Yrotation
                    JOINT rMid2
                    {
                      OFFSET -3.9766 -1.54 2.3863
                      CHANNELS 3 Zrotation Xrotation Yrotation
                      JOINT rMid2_End
                      {
                        OFFSET -1.4042 -1.926 1.125
                        CHANNELS 3 Zrotation Xrotation Yrotation
                        End Site
                        {
                          OFFSET -0.014 -0.0193 0.0113
                        }
                      }
                    }
                  }
                }
                JOINT rCarpal2
                {
                  OFFSET -2.0956 0.66 -0.3894
                  CHANNELS 3 Zrotation Xrotation Yrotation
                  JOINT rRing1
                  {
                    OFFSET -5.0395 -0.09 2.4971
                    CHANNELS 3 Zrotation Xrotation Yrotation
                    JOINT rRing2
                    {
                      OFFSET -3.7921 -1.552 1.4806
                      CHANNELS 3 Zrotation Xrotation Yrotation
                      JOINT rRing2_End
                      {
                        OFFSET -1.4655 -1.808 0.9609
                        CHANNELS 3 Zrotation Xrotation Yrotation
                        End Site
                        {
                          OFFSET -0.0147 -0.0181 0.0096
                        }
                      }
                    }
                  }
                  JOINT rPinky1
                  {
                    OFFSET -4.9141 -1.269 0.3592
                    CHANNELS 3 Zrotation Xrotation Yrotation
                    JOINT rPinky2
                    {
                      OFFSET -3.1477 -1.685 0.8462
                      CHANNELS 3 Zrotation Xrotation Yrotation
                      JOINT rPinky2_End
                      {
                        OFFSET -0.8055 -1.585 0.7955
                        CHANNELS 3 Zrotation Xrotation Yrotation
                        End Site
                        {
                          OFFSET -0.0081 -0.0158 0.008
                        }
                      }
                    }
                  }
                }
              }
            }
          }
        }
      }
    }
  }
  JOINT lThigh
  {
    OFFSET 8.367 -8.2066 0.5982
    CHANNELS 3 Zrotation Xrotation Yrotation
    JOINT lShin
    {
      OFFSET 2.1923 -43.463 -0.4932
      CHANNELS 3 Zrotation Xrotation Yrotation
      JOINT lFoot
      {
        OFFSET 0.7333 -45.8593 -2.6451
        CHANNELS 3 Zrotation Xrotation Yrotation
        End Site
        {
          OFFSET 2.6618 -4.2699 12.3931
        }
      }
    }
  }
  JOINT rThigh
  {
    OFFSET -8.367 -8.2066 0.5982
    CHANNELS 3 Zrotation Xrotation Yrotation
    JOINT rShin
    {
      OFFSET -2.1923 -43.463 -0.4931
      CHANNELS 3 Zrotation Xrotation Yrotation
      JOINT rFoot
      {
        OFFSET -0.7333 -45.8593 -2.6451
        CHANNELS 3 Zrotation Xrotation Yrotation
        End Site
        {
          OFFSET -2.6618 -4.2699 12.3931
        }
      }
    }
  }
}
MOTION
Frames:	6
Frame Time:	0.0333333
-0.731672 84.7619 7.18371 0 2.17657 -0 -0.636793 1.26978 -0.239484 -1.26874 2.54213 -0.465005 -1.26873 2.54213 -0.465005 14.8836 2.3412 -1.35254 7.30481 -4.92631 9.11407 4.26287 6.17909 -4.32488 -51.2685 -1.42306 -8.52228 -16.0087 29.055 -53.4318 -7.81979 3.36503 7.1893 6.36111e-015 -6.36111e-015 1.59028e-015 -8.25179e-007 1.02467e-006 1.06708e-006 -1.05934e-030 -1.27222e-014 -4.77083e-015 6.36111e-015 6.36111e-015 1.59028e-015 -1.27222e-014 -9.54166e-015 1.59028e-015 -8.25179e-007 1.02467e-006 1.06708e-006 6.36111e-015 -9.54166e-015 -3.18055e-015 -1.27222e-014 -9.54166e-015 1.59028e-015 -8.25179e-007 1.02467e-006 1.06708e-006 6.36111e-015 -9.54166e-015 -3.18055e-015 6.36111e-015 6.36111e-015 1.59028e-015 -1.27222e-014 -9.54166e-015 1.59028e-015 -8.25179e-007 1.02467e-006 1.06708e-006 6.36111e-015 -9.54166e-015 -3.18055e-015 -1.27222e-014 -9.54166e-015 1.59028e-015 -8.25179e-007 1.02467e-006 1.06708e-006 6.36111e-015 -9.54166e-015 -3.18055e-015 -4.56591 5.68914 4.22391 51.4826 -1.44232 9.39048 15.1627 27.2456 52.16 8.88908 4.30074 -6.79009 8.00366e-007 1.11053e-006 -9.90785e-007 5.29669e-031 -9.54166e-015 3.18055e-015 8.00365e-007 1.11053e-006 -9.90785e-007 3.18055e-015 9.54166e-015 1.59028e-015 8.00366e-007 1.11053e-006 -9.90785e-007 -3.18055e-015 -6.36111e-015 -0 8.00365e-007 1.11053e-006 -9.90785e-007 8.00366e-007 1.11053e-006 -9.90785e-007 -3.18055e-015 -6.36111e-015 -0 8.00365e-007 1.11053e-006 -9.90785e-007 3.18055e-015 9.54166e-015 1.59028e-015 8.00366e-007 1.11053e-006 -9.90785e-007 -3.18055e-015 -6.36111e-015 -0 8.00365e-007 1.11053e-006 -9.90785e-007 8.00366e-007 1.11053e-006 -9.90785e-007 -3.18055e-015 -6.36111e-015 -0 8.00365e-007 1.11053e-006 -9.90785e-007 12.8588 -26.5701 24.0936 4.92269 50.1973 -2.24521 -12.4185 -19.5193 -7.36714 -10.7119 -26.9741 -22.3171 -5.33781 50.4735 2.54453 11.5904 -20.4791 5.43429 
-0.731675 84.7336 7.10788 0 2.85464 -0 -0.635578 1.01056 -0.243799 -1.26714 2.02379 -0.476482 -1.26714 2.02379 -0.476482 15.0241 2.67673 -1.40928 7.35055 -4.67976 9.17991 4.17034 6.71054 -4.18573 -51.2685 -1.42305 -8.52229 -16.0359 29.1426 -53.6534 -7.78706 3.52831 7.31441 4.13782e-007 -5.12202e-007 -5.32903e-007 4.13782e-007 -5.12202e-007 -5.32903e-007 4.13782e-007 -5.12202e-007 -5.32903e-007 -3.18055e-015 3.18055e-015 -1.59028e-015 4.13782e-007 -5.12202e-007 -5.32903e-007 4.13782e-007 -5.12202e-007 -5.32903e-007 4.13782e-007 -5.12202e-007 -5.32903e-007 4.13782e-007 -5.12202e-007 -5.32903e-007 4.13782e-007 -5.12202e-007 -5.32903e-007 4.13782e-007 -5.12202e-007 -5.32903e-007 -3.18055e-015 3.18055e-015 -1.59028e-015 4.13782e-007 -5.12202e-007 -5.32903e-007 4.13782e-007 -5.12202e-007 -5.32903e-007 4.13782e-007 -5.12202e-007 -5.32903e-007 4.13782e-007 -5.12202e-007 -5.32903e-007 4.13782e-007 -5.12202e-007 -5.32903e-007 4.13782e-007 -5.12202e-007 -5.32903e-007 -4.48081 6.20589 4.08161 51.4825 -1.44232 9.39047 15.1964 27.3277 52.3714 8.87716 4.47816 -6.90869 -1.60547e-006 -2.22056e-006 1.97911e-006 -1.60547e-006 -2.22056e-006 1.97911e-006 -8.02733e-007 -1.11028e-006 9.89553e-007 3.18055e-015 -3.18055e-015 1.59028e-015 -1.60547e-006 -2.22056e-006 1.97911e-006 -1.60547e-006 -2.22056e-006 1.97911e-006 -8.02733e-007 -1.11028e-006 9.89553e-007 -1.60547e-006 -2.22056e-006 1.97911e-006 -1.60547e-006 -2.22056e-006 1.97911e-006 -8.02733e-007 -1.11028e-006 9.89553e-007 3.18055e-015 -3.18055e-015 1.59028e-015 -1.60547e-006 -2.22056e-006 1.97911e-006 -1.60547e-006 -2.22056e-006 1.97911e-006 -8.02733e-007 -1.11028e-006 9.89553e-007 -1.60547e-006 -2.22056e-006 1.97911e-006 -1.60547e-006 -2.22056e-006 1.97911e-006 -8.02733e-007 -1.11028e-006 9.89553e-007 12.6956 -27.4721 23.7427 4.92134 50.1889 -2.24695 -12.4101 -19.5766 -6.88245 -10.5801 -27.8611 -22.0375 -5.33649 50.4652 2.54506 11.5738 -20.5081 5.03662 
-0.731585 84.7046 7.0317 0 3.53261 -0 -0.634314 0.751483 -0.248079 -1.26553 1.50566 -0.487886 -1.26553 1.50566 -0.487886 15.1641 3.01161 -1.46686 7.39597 -4.43327 9.2455 4.07631 7.24185 -4.04562 -51.2684 -1.42306 -8.52228 -16.0627 29.2303 -53.8752 -7.75469 3.69165 7.43946 3.18055e-015 3.18055e-015 1.59028e-015 3.68156e-006 3.83187e-006 1.37904e-006 1.27222e-014 6.36111e-015 -0 3.18055e-015 0 1.59028e-015 3.18055e-015 1.59028e-014 6.36111e-015 3.68156e-006 3.83187e-006 1.37904e-006 6.36111e-015 3.18055e-015 1.59028e-015 3.18055e-015 1.59028e-014 6.36111e-015 3.68156e-006 3.83187e-006 1.37904e-006 6.36111e-015 3.18055e-015 1.59028e-015 3.18055e-015 0 1.59028e-015 3.18055e-015 1.59028e-014 6.36111e-015 3.68156e-006 3.83187e-006 1.37904e-006 6.36111e-015 3.18055e-015 1.59028e-015 3.18055e-015 1.59028e-014 6.36111e-015 3.68156e-006 3.83187e-006 1.37904e-006 6.36111e-015 3.18055e-015 1.59028e-015 -4.39442 6.72251 3.93838 51.4825 -1.44232 9.39048 15.2297 27.41 52.5829 8.86563 4.6556 -7.02728 -1.61021e-006 -2.22003e-006 1.97666e-006 -3.18055e-015 -6.36111e-015 4.77083e-015 -8.05106e-007 -1.11001e-006 9.88328e-007 8.82781e-032 -3.18055e-015 1.59028e-015 -1.61021e-006 -2.22003e-006 1.97666e-006 -3.18055e-015 -3.18055e-015 1.59028e-015 -8.05106e-007 -1.11001e-006 9.88328e-007 -1.61021e-006 -2.22003e-006 1.97666e-006 -3.18055e-015 -3.18055e-015 1.59028e-015 -8.05106e-007 -1.11001e-006 9.88328e-007 8.82781e-032 -3.18055e-015 1.59028e-015 -1.61021e-006 -2.22003e-006 1.97666e-006 -3.18055e-015 -3.18055e-015 1.59028e-015 -8.05106e-007 -1.11001e-006 9.88328e-007 -1.61021e-006 -2.22003e-006 1.97666e-006 -3.18055e-015 -3.18055e-015 1.59028e-015 -8.05106e-007 -1.11001e-006 9.88328e-007 12.5254 -28.3729 23.3861 4.91998 50.1804 -2.24877 -12.4017 -19.6336 -6.39762 -10.443 -28.747 -21.7533 -5.33499 50.4566 2.54565 11.5575 -20.5367 4.6389 
-0.731401 84.6749 6.95519 0 4.21045 -0 -0.633037 0.492602 -0.252336 -1.26397 0.987963 -0.499241 -1.26397 0.987965 -0.499241 15.3049 3.34599 -1.52517 7.44108 -4.18684 9.31084 3.98096 7.77276 -3.90443 -51.2685 -1.42305 -8.52228 -16.0891 29.3182 -54.0972 -7.72268 3.85508 7.56439 4.16169e-007 -5.11925e-007 -5.31635e-007 4.16169e-007 -5.11925e-007 -5.31635e-007 -4.16169e-007 5.11925e-007 5.31635e-007 6.36111e-015 -6.36111e-015 6.36111e-015 4.16169e-007 -5.11925e-007 -5.31635e-007 4.16169e-007 -5.11925e-007 -5.31635e-007 -4.16169e-007 5.11925e-007 5.31635e-007 4.16169e-007 -5.11925e-007 -5.31635e-007 4.16169e-007 -5.11925e-007 -5.31635e-007 -4.16169e-007 5.11925e-007 5.31635e-007 6.36111e-015 -6.36111e-015 6.36111e-015 4.16169e-007 -5.11925e-007 -5.31635e-007 4.16169e-007 -5.11925e-007 -5.31635e-007 -4.16169e-007 5.11925e-007 5.31635e-007 4.16169e-007 -5.11925e-007 -5.31635e-007 4.16169e-007 -5.11925e-007 -5.31635e-007 -4.16169e-007 5.11925e-007 5.31635e-007 -4.30656 7.23874 3.79425 51.4826 -1.44232 9.39047 15.2627 27.4923 52.7945 8.85445 4.83306 -7.14589 8.07481e-007 1.10973e-006 -9.87112e-007 3.18055e-015 -6.36111e-015 -0 -3.18055e-015 -3.18055e-015 -0 0 0 -3.18055e-015 8.07481e-007 1.10973e-006 -9.87112e-007 -3.18055e-015 6.36111e-015 -1.59028e-015 -3.18055e-015 3.18055e-015 -0 8.07481e-007 1.10973e-006 -9.87112e-007 -3.18055e-015 6.36111e-015 -1.59028e-015 -3.18055e-015 3.18055e-015 -0 0 0 -3.18055e-015 8.07481e-007 1.10973e-006 -9.87112e-007 -3.18055e-015 6.36111e-015 -1.59028e-015 -3.18055e-015 3.18055e-015 -0 8.07481e-007 1.10973e-006 -9.87112e-007 -3.18055e-015 6.36111e-015 -1.59028e-015 -3.18055e-015 3.18055e-015 -0 12.3483 -29.2718 23.0237 4.91822 50.1715 -2.25073 -12.3933 -19.6902 -5.91266 -10.3005 -29.6316 -21.4645 -5.33326 50.4477 2.54638 11.5415 -20.565 4.24116 
-0.731127 84.6445 6.87834 0 4.88809 -0 -0.63176 0.233993 -0.256574 -1.26248 0.470815 -0.510559 -1.26248 0.470813 -0.51056 15.4458 3.67997 -1.58418 7.48585 -3.9405 9.37592 3.88433 8.3033 -3.76212 -51.2685 -1.42305 -8.52228 -16.1152 29.4061 -54.3193 -7.69105 4.01854 7.68928 3.26062e-006 -9.09141e-007 4.92784e-006 8.34721e-007 -1.02356e-006 -1.06201e-006 3.4133e-006 1.89946e-007 4.40089e-006 -3.53113e-031 3.18055e-015 6.36111e-015 3.26062e-006 -9.09141e-007 4.92784e-006 8.34721e-007 -1.02356e-006 -1.06201e-006 3.4133e-006 1.89946e-007 4.40089e-006 3.26062e-006 -9.09141e-007 4.92784e-006 8.34721e-007 -1.02356e-006 -1.06201e-006 3.4133e-006 1.89946e-007 4.40089e-006 -3.53113e-031 3.18055e-015 6.36111e-015 3.26062e-006 -9.09141e-007 4.92784e-006 8.34721e-007 -1.02356e-006 -1.06201e-006 3.4133e-006 1.89946e-007 4.40089e-006 3.26062e-006 -9.09141e-007 4.92784e-006 8.34721e-007 -1.02356e-006 -1.06201e-006 3.4133e-006 1.89946e-007 4.40089e-006 -4.21715 7.75463 3.64925 51.4826 -1.44232 9.39048 15.2954 27.5747 53.0062 8.84364 5.01052 -7.2645 -8.09859e-007 -1.10943e-006 9.85904e-007 2.81801e-006 -5.4583e-006 2.92679e-006 6.36111e-015 9.54166e-015 -6.36111e-015 9.54166e-015 3.18055e-015 -0 -8.09859e-007 -1.10943e-006 9.85904e-007 2.81801e-006 -5.4583e-006 2.92679e-006 9.54166e-015 6.36111e-015 -4.77083e-015 -8.09859e-007 -1.10943e-006 9.85904e-007 2.81801e-006 -5.4583e-006 2.92679e-006 9.54166e-015 6.36111e-015 -4.77083e-015 9.54166e-015 3.18055e-015 -0 -8.09859e-007 -1.10943e-006 9.85904e-007 2.81801e-006 -5.4583e-006 2.92679e-006 9.54166e-015 6.36111e-015 -4.77083e-015 -8.09859e-007 -1.10943e-006 9.85904e-007 2.81801e-006 -5.4583e-006 2.92679e-006 9.54166e-015 6.36111e-015 -4.77083e-015 12.1636 -30.1699 22.6549 4.91702 50.163 -2.25282 -12.3849 -19.7465 -5.42757 -10.1521 -30.5156 -21.1707 -5.33188 50.4391 2.54722 11.5259 -20.5929 3.84338 
-0.73076 84.6134 6.80117 0 5.5655 -0 -0.630379 -0.0243081 -0.26075 -1.26086 -0.0457384 -0.52175 -1.26086 -0.0457402 -0.52175 15.5872 4.01383 -1.6442 7.53032 -3.69422 9.44077 3.78589 8.83362 -3.6189 -51.2684 -1.42306 -8.52228 -16.1408 29.4941 -54.5415 -7.65971 4.18211 7.8141 4.66154e-006 -1.33864e-006 2.81802e-006 4.1855e-007 -5.11627e-007 -5.30374e-007 -3.18055e-015 -6.36111e-015 3.18055e-015 3.18055e-015 -9.54166e-015 -6.36111e-015 4.66154e-006 -1.33864e-006 2.81802e-006 4.1855e-007 -5.11627e-007 -5.30374e-007 -0 0 6.36111e-015 4.66154e-006 -1.33864e-006 2.81802e-006 4.1855e-007 -5.11627e-007 -5.30374e-007 -0 0 6.36111e-015 3.18055e-015 -9.54166e-015 -6.36111e-015 4.66154e-006 -1.33864e-006 2.81802e-006 4.1855e-007 -5.11627e-007 -5.30374e-007 -0 0 6.36111e-015 4.66154e-006 -1.33864e-006 2.81802e-006 4.1855e-007 -5.11627e-007 -5.30374e-007 -0 0 6.36111e-015 -4.12669 8.27033 3.50313 51.4826 -1.44232 9.39048 15.3278 27.6572 53.218 8.83321 5.18803 -7.38306 8.35708e-007 -1.11872e-006 -1.06712e-006 -8.12237e-007 -1.10911e-006 9.84708e-007 -8.35708e-007 1.11872e-006 1.06712e-006 3.18055e-015 0 6.36111e-015 8.35708e-007 -1.11872e-006 -1.06712e-006 -8.12237e-007 -1.10911e-006 9.84708e-007 -8.35708e-007 1.11872e-006 1.06712e-006 8.35708e-007 -1.11872e-006 -1.06712e-006 -8.12237e-007 -1.10911e-006 9.84708e-007 -8.35708e-007 1.11872e-006 1.06712e-006 3.18055e-015 0 6.36111e-015 8.35708e-007 -1.11872e-006 -1.06712e-006 -8.12237e-007 -1.10911e-006 9.84708e-007 -8.35708e-007 1.11872e-006 1.06712e-006 8.35708e-007 -1.11872e-006 -1.06712e-006 -8.12237e-007 -1.10911e-006 9.84708e-007 -8.35708e-007 1.11872e-006 1.06712e-006 11.9713 -31.0661 22.2798 4.91563 50.1545 -2.25504 -12.3765 -19.8025 -4.94241 -9.9978 -31.3985 -20.8716 -5.3306 50.4307 2.54822 11.5105 -20.6205 3.4456 
